<?xml version="1.0" standalone="no"?><!DOCTYPE svg PUBLIC "-//W3C//DTD SVG 1.1//EN" "http://www.w3.org/Graphics/SVG/1.1/DTD/svg11.dtd"><svg t="1558582847636" class="icon" style="" viewBox="0 0 1448 1024" version="1.1" xmlns="http://www.w3.org/2000/svg" p-id="3794" xmlns:xlink="http://www.w3.org/1999/xlink" width="282.8125" height="200"><defs><style type="text/css"></style></defs><path d="M1142.497621 160.117834H289.015777v704.854938h702.104341l-16.556914-112.275661L1033.839538 634.087676l124.177718-39.564574V160.117834h-15.519635z m-232.146002 121.824486c-12.154925 0-23.131515 4.690982-31.577691 12.189329-9.877382 8.757533-16.218035 21.425077-16.218035 35.671765 0 26.434296 21.395834 47.861094 47.795726 47.861093 26.398172 0 47.792286-21.426797 47.792286-47.861093 0-14.246687-6.340653-26.914232-16.218035-35.671765-8.442736-7.498347-19.419325-12.189329-31.574251-12.189329z m31.625857 246.337642l-128.550464 128.820535-287.91829-286.077677-205.457116 201.495497V190.763177h806.926381V612.872463l-76.263298 20.425642-108.737213-105.018143z" fill="#8a8a8a" p-id="3795"></path><path d="M1016.776885 671.261175l21.481844-20.857412 222.402795 229.042763-21.481844 20.859132z" fill="#8a8a8a" p-id="3796"></path><path d="M1129.401747 592.219755c-95.952695 0-173.740089 77.785674-173.740089 173.740089 0 95.952695 77.787394 173.740089 173.740089 173.740089s173.740089-77.787394 173.740089-173.740089c0-95.954415-77.787394-173.740089-173.740089-173.740089z m0 318.821664c-80.125144 0-145.081575-64.95471-145.081575-145.081575s64.956431-145.081575 145.081575-145.081575 145.081575 64.95471 145.081575 145.081575-64.956431 145.081575-145.081575 145.081575z" fill="#8a8a8a" p-id="3797"></path></svg>