<?xml version="1.0" encoding="UTF-8"?>
<svg width="28px" height="14px" viewBox="0 0 28 14" version="1.1" xmlns="http://www.w3.org/2000/svg" xmlns:xlink="http://www.w3.org/1999/xlink">
    <!-- Generator: Sketch 64 (93537) - https://sketch.com -->
    <title>接口不可用</title>
    <desc>Created with Sketch.</desc>
    <g id="页面-1" stroke="none" stroke-width="1" fill="none" fill-rule="evenodd" opacity="0.5">
        <g id="网关" transform="translate(-590.000000, -396.000000)" fill="#001A00">
            <g id="接口" transform="translate(587.000000, 326.000000)">
                <g id="接口不可用" transform="translate(3.000000, 70.000000)">
                    <path d="M21,0.5 L21,3 L21,3 L23,3 L23,1.3903882 C23,1.16095438 23.1561487,0.960962828 23.3787322,0.905316953 L26.3787322,0.155316953 C26.6466296,0.0883425896 26.9180969,0.251222937 26.9850713,0.519120391 C26.9949863,0.558780693 27,0.5995073 27,0.640388203 L27,13.3596118 C27,13.6357542 26.7761424,13.8596118 26.5,13.8596118 C26.4591191,13.8596118 26.4183925,13.8545981 26.3787322,13.844683 L23.3787322,13.094683 C23.1561487,13.0390372 23,12.8390456 23,12.6096118 L23,11 L23,11 L21,11 L21,13.5 C21,13.7761424 20.7761424,14 20.5,14 L10.5,14 L0.5,14 C0.223857625,14 3.38176876e-17,13.7761424 0,13.5 L0,10 L0,10 C1.1045695,10 2,8.65685425 2,7 C2,5.34314575 1.1045695,4 0,4 L0,0.5 C-3.38176876e-17,0.223857625 0.223857625,5.07265313e-17 0.5,0 L20.5,0 C20.7761424,-5.07265313e-17 21,0.223857625 21,0.5 Z" id="路径"></path>
                </g>
            </g>
        </g>
    </g>
</svg>