<?xml version="1.0" encoding="UTF-8"?>
<svg width="60px" height="60px" viewBox="0 0 60 60" version="1.1" xmlns="http://www.w3.org/2000/svg" xmlns:xlink="http://www.w3.org/1999/xlink">
    <!-- Generator: Sketch 54.1 (76490) - https://sketchapp.com -->
    <title>编组</title>
    <desc>Created with Sketch.</desc>
    <g id="页面1" stroke="none" stroke-width="1" fill="none" fill-rule="evenodd">
        <g id="Desktop-HD" transform="translate(-915.000000, -196.000000)">
            <g id="编组-3" transform="translate(831.000000, 148.000000)">
                <g id="编组" transform="translate(84.000000, 48.000000)">
                    <path d="M21.0783582,3.58208955 L38.9216418,3.58208955 C42.6495639,3.58208955 45.6716418,6.60416749 45.6716418,10.3320896 L45.6716418,49.6679104 C45.6716418,53.3958325 42.6495639,56.4179104 38.9216418,56.4179104 L21.0783582,56.4179104 C17.3504361,56.4179104 14.3283582,53.3958325 14.3283582,49.6679104 L14.3283582,10.3320896 C14.3283582,6.60416749 17.3504361,3.58208955 21.0783582,3.58208955 Z M21.0447761,10.2985075 L21.0447761,49.7014925 L38.9552239,49.7014925 L38.9552239,10.2985075 L21.0447761,10.2985075 Z M14.3283582,36.7164179 L21.0447761,36.7164179 L21.0447761,47.4626866 L14.3283582,47.4626866 L14.3283582,36.7164179 Z M38.9552239,12.5373134 L45.6716418,12.5373134 L45.6716418,23.2835821 L38.9552239,23.2835821 L38.9552239,12.5373134 Z" id="形状结合" fill="#001529" transform="translate(30.000000, 30.000000) rotate(45.000000) translate(-30.000000, -30.000000) "></path>
                    <path d="M21.0783582,3.58208955 L38.9216418,3.58208955 C42.6495639,3.58208955 45.6716418,6.60416749 45.6716418,10.3320896 L45.6716418,49.6679104 C45.6716418,53.3958325 42.6495639,56.4179104 38.9216418,56.4179104 L21.0783582,56.4179104 C17.3504361,56.4179104 14.3283582,53.3958325 14.3283582,49.6679104 L14.3283582,10.3320896 C14.3283582,6.60416749 17.3504361,3.58208955 21.0783582,3.58208955 Z M21.0447761,10.2985075 L21.0447761,49.7014925 L38.9552239,49.7014925 L38.9552239,10.2985075 L21.0447761,10.2985075 Z M14.3283582,36.7164179 L21.0447761,36.7164179 L21.0447761,47.4626866 L14.3283582,47.4626866 L14.3283582,36.7164179 Z M38.9552239,12.5373134 L45.6716418,12.5373134 L45.6716418,23.2835821 L38.9552239,23.2835821 L38.9552239,12.5373134 Z" id="形状结合" fill="#13C2C3" transform="translate(30.000000, 30.000000) rotate(135.000000) translate(-30.000000, -30.000000) "></path>
                </g>
            </g>
        </g>
    </g>
</svg>